<svg xmlns="http://www.w3.org/2000/svg" width="47.372" height="57.494" viewBox="0 0 47.372 57.494">
  <g id="accomplishment" transform="translate(-45.068)">
    <g id="Group_6" data-name="Group 6" transform="translate(78.451 2.314)">
      <g id="Group_5" data-name="Group 5" transform="translate(0)">
        <path id="Path_8" data-name="Path 8" d="M349.409,20.608a6.932,6.932,0,0,0-1.657.208l.428,1.744a5.1,5.1,0,0,1,6.358,4.977c0,7.556-8.6,13.125-12.191,14.173l.5,1.725c4.556-1.332,13.485-7.553,13.486-15.9A6.936,6.936,0,0,0,349.409,20.608Z" transform="translate(-342.348 -20.608)" fill="#fff"/>
      </g>
    </g>
    <g id="Group_8" data-name="Group 8" transform="translate(45.068 2.314)">
      <g id="Group_7" data-name="Group 7" transform="translate(0)">
        <path id="Path_9" data-name="Path 9" d="M46.864,27.537a5.1,5.1,0,0,1,6.358-4.976l.43-1.745a6.926,6.926,0,0,0-8.585,6.721c0,8.346,8.93,14.567,13.484,15.9l.5-1.725C55.468,40.661,46.864,35.093,46.864,27.537Z" transform="translate(-45.068 -20.609)" fill="#fff"/>
      </g>
    </g>
    <g id="Group_10" data-name="Group 10" transform="translate(64.74 33.441)">
      <g id="Group_9" data-name="Group 9" transform="translate(0)">
        <path id="Path_10" data-name="Path 10" d="M227.381,297.8H221.15a.9.9,0,0,0-.9.9v3.409a.9.9,0,0,0,1.088.878,14.427,14.427,0,0,1,5.852,0,.9.9,0,0,0,1.088-.878V298.7A.9.9,0,0,0,227.381,297.8Zm-.9,3.237a16.506,16.506,0,0,0-4.434,0V299.6h4.434Z" transform="translate(-220.252 -297.8)" fill="#fff"/>
      </g>
    </g>
    <g id="Group_12" data-name="Group 12" transform="translate(55.73 52.379)">
      <g id="Group_11" data-name="Group 11">
        <path id="Path_11" data-name="Path 11" d="M165.168,466.448h-24.25a.9.9,0,0,0-.9.9v3.318a.9.9,0,0,0,.9.9h24.25a.9.9,0,0,0,.9-.9v-3.318A.9.9,0,0,0,165.168,466.448Zm-.9,3.318H141.817v-1.522H164.27Z" transform="translate(-140.02 -466.448)" fill="#fff"/>
      </g>
    </g>
    <g id="Group_14" data-name="Group 14" transform="translate(57.286 39.722)">
      <g id="Group_13" data-name="Group 13">
        <path id="Path_12" data-name="Path 12" d="M175.906,353.736h-21.14a.9.9,0,0,0-.9.9v12.657a.9.9,0,0,0,.9.9h21.14a.9.9,0,0,0,.9-.9V354.634A.9.9,0,0,0,175.906,353.736Zm-.9,12.657H155.665v-10.86h19.343Z" transform="translate(-153.868 -353.736)" fill="#fff"/>
      </g>
    </g>
    <g id="Group_16" data-name="Group 16" transform="translate(60.879 43.315)">
      <g id="Group_15" data-name="Group 15" transform="translate(0)">
        <path id="Path_13" data-name="Path 13" d="M200.72,385.728H186.766a.9.9,0,0,0-.9.9v5.47a.9.9,0,0,0,.9.9H200.72a.9.9,0,0,0,.9-.9v-5.47A.9.9,0,0,0,200.72,385.728Zm-.9,5.47H187.665v-3.673h12.157Z" transform="translate(-185.868 -385.728)" fill="#fff"/>
      </g>
    </g>
    <g id="Group_18" data-name="Group 18" transform="translate(52.481)">
      <g id="Group_17" data-name="Group 17" transform="translate(0)">
        <path id="Path_14" data-name="Path 14" d="M143.189.452A1.505,1.505,0,0,0,142.111,0H112.6a1.523,1.523,0,0,0-1.519,1.531c.006.612.031,1.214.058,1.9.022.553.054,1.1.091,1.647a48.119,48.119,0,0,0,4.288,17.581c.347.713.721,1.412,1.112,2.075a17.232,17.232,0,0,0,6.13,6.519.9.9,0,0,0,.769.051c.208.007.444.007.708.007H131.2a.9.9,0,0,0,.755-.057,17.232,17.232,0,0,0,6.13-6.519c.388-.662.762-1.36,1.11-2.074a48.1,48.1,0,0,0,4.289-17.582c.036-.545.067-1.091.09-1.649.026-.628.051-1.257.057-1.893A1.5,1.5,0,0,0,143.189.452Zm-1.415,2.9c-.023.538-.052,1.07-.088,1.6a46.283,46.283,0,0,1-4.112,16.916c-.327.672-.678,1.329-1.043,1.949a16.149,16.149,0,0,1-5.166,5.691h-8.016a16.136,16.136,0,0,1-5.166-5.692c-.367-.623-.718-1.277-1.044-1.949a46.319,46.319,0,0,1-4.112-16.916c-.035-.529-.066-1.062-.091-1.681-.02-.491-.04-.983-.049-1.479h28.938C141.816,2.32,141.795,2.838,141.774,3.356Z" transform="translate(-111.084 0)" fill="#fff"/>
      </g>
    </g>
    <g id="Group_20" data-name="Group 20" transform="translate(71.611 3.89)">
      <g id="Group_19" data-name="Group 19">
        <path id="Path_15" data-name="Path 15" d="M289.379,34.64c-.014.282-.031.548-.049.811a41.051,41.051,0,0,1-3.567,14.772c-.27.553-.562,1.1-.871,1.626a13.2,13.2,0,0,1-3.449,4.059l1.042,1.464a14.984,14.984,0,0,0,3.955-4.611c.332-.567.649-1.156.938-1.752a42.917,42.917,0,0,0,3.744-15.44c.018-.274.034-.546.05-.836Z" transform="translate(-281.444 -34.64)" fill="#fff"/>
      </g>
    </g>
    <g id="Group_22" data-name="Group 22" transform="translate(63.936 29.513)">
      <g id="Group_21" data-name="Group 21" transform="translate(0)">
        <path id="Path_16" data-name="Path 16" d="M221.025,262.824h-6.271c-1.512,0-1.662,2.931-1.662,2.961s.176,2.764,1.7,2.764h6.272c1.486,0,1.662-2.736,1.662-2.764S222.579,262.824,221.025,262.824Zm-.328,3.928h-5.575a3.924,3.924,0,0,1-.234-.967,5,5,0,0,1,.261-1.165h5.521a4.958,4.958,0,0,1,.261,1.163A3.865,3.865,0,0,1,220.7,266.752Z" transform="translate(-213.092 -262.824)" fill="#fff"/>
      </g>
    </g>
    <g id="Group_24" data-name="Group 24" transform="translate(60.696 36.53)">
      <g id="Group_23" data-name="Group 23">
        <path id="Path_17" data-name="Path 17" d="M195.6,325.652a16.254,16.254,0,0,0-6.61,0c-2.976.644-4.753,2.046-4.753,3.75a.9.9,0,0,0,.9.9h14.32a.9.9,0,0,0,.9-.9C200.352,327.7,198.575,326.3,195.6,325.652Zm-8.932,2.851a7.1,7.1,0,0,1,2.7-1.1,14.423,14.423,0,0,1,5.851,0,7.1,7.1,0,0,1,2.7,1.1Z" transform="translate(-184.236 -325.312)" fill="#fff"/>
      </g>
    </g>
  </g>
</svg>
