<svg xmlns="http://www.w3.org/2000/svg" width="30" height="32.961" viewBox="0 0 30 32.961">
  <g id="code_icon" transform="translate(-23 0)">
    <g id="Group_49" data-name="Group 49" transform="translate(23 0)">
      <g id="Group_48" data-name="Group 48" transform="translate(0 0)">
        <path id="Path_60" data-name="Path 60" d="M50.342,6.3,40.653.708a5.326,5.326,0,0,0-5.306,0L25.658,6.3A5.326,5.326,0,0,0,23,10.9V22.064a5.326,5.326,0,0,0,2.658,4.6l9.689,5.588a5.325,5.325,0,0,0,5.306,0l9.689-5.588A5.326,5.326,0,0,0,53,22.064V10.9A5.326,5.326,0,0,0,50.342,6.3Zm.083,15.769a2.743,2.743,0,0,1-1.369,2.37l-9.689,5.588a2.743,2.743,0,0,1-2.733,0l-9.689-5.588a2.743,2.743,0,0,1-1.369-2.37V10.9a2.743,2.743,0,0,1,1.369-2.37l9.689-5.588a2.743,2.743,0,0,1,2.733,0l9.689,5.588a2.743,2.743,0,0,1,1.369,2.37Z" transform="translate(-23 0)" fill="#2baa48"/>
        <path id="Path_61" data-name="Path 61" d="M136.695,177.484l-4.782-4.047a1.288,1.288,0,0,0-1.663,1.966l3.62,3.064-3.62,3.064a1.288,1.288,0,1,0,1.663,1.966l4.782-4.047A1.288,1.288,0,0,0,136.695,177.484Z" transform="translate(-122.918 -161.986)" fill="#2baa48"/>
        <path id="Path_62" data-name="Path 62" d="M259.292,298.859H253.5a1.288,1.288,0,0,0,0,2.576h5.794a1.288,1.288,0,0,0,0-2.576Z" transform="translate(-237.455 -279.619)" fill="#2baa48"/>
      </g>
    </g>
  </g>
</svg>
