<svg xmlns="http://www.w3.org/2000/svg" width="62" height="62" viewBox="0 0 62 62">
  <path id="facebook" d="M53.647,0H8.357A8.355,8.355,0,0,0,0,8.355V53.645A8.355,8.355,0,0,0,8.357,62H30.694l.038-22.156H24.976a1.358,1.358,0,0,1-1.358-1.353L23.59,31.35a1.358,1.358,0,0,1,1.358-1.363h5.746v-6.9c0-8.008,4.891-12.369,12.035-12.369h5.862a1.358,1.358,0,0,1,1.358,1.358V18.1a1.358,1.358,0,0,1-1.357,1.358l-3.6,0c-3.885,0-4.637,1.846-4.637,4.555v5.974h8.537A1.358,1.358,0,0,1,50.242,31.5L49.4,38.647a1.358,1.358,0,0,1-1.349,1.2H40.395L40.357,62H53.647A8.355,8.355,0,0,0,62,53.646V8.355A8.355,8.355,0,0,0,53.647,0Z" transform="translate(-0.002)" fill="#475993"/>
</svg>
