<svg xmlns="http://www.w3.org/2000/svg" width="14.667" height="22" viewBox="0 0 14.667 22">
  <g id="fork_icon" transform="translate(-73.085)">
    <path id="Path_65" data-name="Path 65" d="M86.95,2.636a2.767,2.767,0,0,0-3.9,0,2.652,2.652,0,0,0-.8,1.948,2.735,2.735,0,0,0,1.375,2.378,6.29,6.29,0,0,1-.121,1.311,2.953,2.953,0,0,1-.4,1,4.505,4.505,0,0,1-.58.73,3.13,3.13,0,0,1-.845.566q-.544.265-1.01.444t-1.253.422a16.815,16.815,0,0,0-2.206.816V5.127a2.673,2.673,0,0,0,1-1,2.693,2.693,0,0,0,.372-1.382A2.651,2.651,0,0,0,77.783.8a2.766,2.766,0,0,0-3.9,0,2.652,2.652,0,0,0-.8,1.948,2.693,2.693,0,0,0,.372,1.382,2.673,2.673,0,0,0,1,1V16.873a2.755,2.755,0,1,0,2.75,0V16.5a1.67,1.67,0,0,1,.594-1.432,9.166,9.166,0,0,1,2.428-1.017,16.611,16.611,0,0,0,2.908-1.161,6.347,6.347,0,0,0,3.237-5.93,2.736,2.736,0,0,0,1.375-2.378A2.652,2.652,0,0,0,86.95,2.636ZM76.809,20.225a1.383,1.383,0,1,1,.4-.974A1.326,1.326,0,0,1,76.809,20.225Zm0-16.5A1.375,1.375,0,0,1,74.46,2.75a1.375,1.375,0,1,1,2.75,0A1.326,1.326,0,0,1,76.809,3.724Zm9.167,1.833a1.375,1.375,0,0,1-2.349-.974,1.375,1.375,0,1,1,2.75,0A1.325,1.325,0,0,1,85.976,5.558Z" transform="translate(0 0)" fill="#b7b7b7"/>
  </g>
</svg>
