<svg xmlns="http://www.w3.org/2000/svg" width="75.206" height="59.79" viewBox="0 0 75.206 59.79">
  <g id="github_icon" transform="translate(0 -52.478)">
    <g id="Group_28" data-name="Group 28" transform="translate(52.175 61.127)">
      <g id="Group_27" data-name="Group 27" transform="translate(0 0)">
        <path id="Path_18" data-name="Path 18" d="M377.461,130.672,360.07,112.246a2.82,2.82,0,1,0-4.1,3.871l15.565,16.489L355.968,149.1a2.821,2.821,0,0,0,4.1,3.873l17.392-18.427A2.821,2.821,0,0,0,377.461,130.672Z" transform="translate(-355.199 -111.361)" fill="#fff"/>
      </g>
    </g>
    <g id="Group_30" data-name="Group 30" transform="translate(0.001 61.127)">
      <g id="Group_29" data-name="Group 29" transform="translate(0)">
        <path id="Path_19" data-name="Path 19" d="M22.264,149.1,6.7,132.605l15.564-16.49a2.82,2.82,0,0,0-4.1-3.871L.77,130.67a2.821,2.821,0,0,0,0,3.872l17.392,18.427a2.821,2.821,0,0,0,4.1-3.873Z" transform="translate(-0.001 -111.36)" fill="#fff"/>
      </g>
    </g>
    <g id="Group_32" data-name="Group 32" transform="translate(30.647 52.478)">
      <g id="Group_31" data-name="Group 31" transform="translate(0 0)">
        <path id="Path_20" data-name="Path 20" d="M220.156,52.51a2.823,2.823,0,0,0-3.214,2.362l-8.273,54.149a2.821,2.821,0,0,0,2.362,3.214,2.906,2.906,0,0,0,.43.032,2.821,2.821,0,0,0,2.785-2.394l8.273-54.149A2.821,2.821,0,0,0,220.156,52.51Z" transform="translate(-208.636 -52.478)" fill="#fff"/>
      </g>
    </g>
  </g>
</svg>
