<svg xmlns="http://www.w3.org/2000/svg" width="62.468" height="47" viewBox="0 0 62.468 47">
  <g id="gmail" transform="translate(0 -64)">
    <rect id="Rectangle_14" data-name="Rectangle 14" width="47" height="47" transform="translate(8 64)" fill="#eceff1"/>
    <path id="Path_23" data-name="Path 23" d="M256,166.694l23.426,18.5V148.672Z" transform="translate(-224.766 -74.341)" fill="#cfd8dc"/>
    <path id="Path_24" data-name="Path 24" d="M56.612,64H54.66L31.234,82.5,7.809,64H5.856A5.859,5.859,0,0,0,0,69.856v35.138a5.859,5.859,0,0,0,5.856,5.856H7.809V74.331L31.234,92.349,54.66,74.327v36.524h1.952a5.859,5.859,0,0,0,5.856-5.856V69.856A5.859,5.859,0,0,0,56.612,64Z" fill="#f44336"/>
  </g>
</svg>
