<svg xmlns="http://www.w3.org/2000/svg" width="62" height="62" viewBox="0 0 62 62">
  <path id="linkedin" d="M56.392,0H5.608A5.608,5.608,0,0,0,0,5.608V56.391A5.608,5.608,0,0,0,5.608,62H56.391A5.609,5.609,0,0,0,62,56.391V5.608A5.608,5.608,0,0,0,56.392,0ZM19.185,53.535a1.632,1.632,0,0,1-1.632,1.632H10.606a1.632,1.632,0,0,1-1.632-1.632V24.411a1.632,1.632,0,0,1,1.632-1.632h6.948a1.632,1.632,0,0,1,1.632,1.632Zm-5.106-33.5a6.6,6.6,0,1,1,6.6-6.6A6.6,6.6,0,0,1,14.08,20.033ZM55.493,53.666a1.5,1.5,0,0,1-1.5,1.5H46.537a1.5,1.5,0,0,1-1.5-1.5V40.006c0-2.038.6-8.93-5.326-8.93-4.595,0-5.527,4.718-5.714,6.835V53.666a1.5,1.5,0,0,1-1.5,1.5H25.286a1.5,1.5,0,0,1-1.5-1.5V24.279a1.5,1.5,0,0,1,1.5-1.5H32.5a1.5,1.5,0,0,1,1.5,1.5V26.82c1.7-2.557,4.236-4.53,9.627-4.53,11.938,0,11.869,11.153,11.869,17.281v14.1Z" fill="#0077b7"/>
</svg>
