<svg xmlns="http://www.w3.org/2000/svg" width="40.616" height="51.508" viewBox="0 0 40.616 51.508">
  <g id="logo" transform="translate(-56 -42)">
    <path id="folding-screen" d="M29.865,8.241,20.308,3.462,10.751,8.241,0,2.865V43.024H2.389V37.79l8.362,4.181,9.557-4.778,9.557,4.778,8.362-4.181v5.234h2.389V2.865ZM11.946,10.314l7.167-3.584V35.119L11.946,38.7ZM21.5,6.731l7.167,3.584V38.7L21.5,35.119Zm9.557,3.584,7.167-3.584V35.119L31.059,38.7ZM2.389,6.731l7.167,3.584V38.7L2.389,35.119Z" transform="translate(56 50.483)" fill="#2baa48"/>
    <text id="S" transform="translate(63 52)" fill="#2baa48" font-size="12" font-family="Bahnschrift" font-weight="700"><tspan x="0" y="0">S</tspan></text>
    <text id="C" transform="translate(83 52)" fill="#2baa48" font-size="12" font-family="Bahnschrift" font-weight="700"><tspan x="0" y="0">C</tspan></text>
  </g>
</svg>
