<svg xmlns="http://www.w3.org/2000/svg" width="74.671" height="51.289" viewBox="0 0 74.671 51.289">
  <g id="projects_icon" transform="translate(0 -80.161)">
    <path id="Path_2" data-name="Path 2" d="M201.664,98.716a9.277,9.277,0,1,0-9.277-9.277A9.288,9.288,0,0,0,201.664,98.716Zm0-16.367a7.09,7.09,0,1,1-7.09,7.09A7.1,7.1,0,0,1,201.664,82.349Z" transform="translate(-164.329)" fill="#fff"/>
    <path id="Path_3" data-name="Path 3" d="M163.419,226a4.378,4.378,0,0,0-3.128.362,13.991,13.991,0,0,1-13.112,0,4.378,4.378,0,0,0-3.128-.362,10.451,10.451,0,0,0-7.777,10.1v14.029a5.777,5.777,0,0,0,5.77,5.77h23.382a5.777,5.777,0,0,0,5.77-5.77V236.1a10.45,10.45,0,0,0-7.777-10.1Zm5.589,24.13a3.587,3.587,0,0,1-3.582,3.583H142.044a3.587,3.587,0,0,1-3.582-3.583V236.1a8.261,8.261,0,0,1,6.147-7.986,2.1,2.1,0,0,1,.537-.069,2.174,2.174,0,0,1,1.011.249,16.178,16.178,0,0,0,15.157,0,2.166,2.166,0,0,1,1.548-.18,8.261,8.261,0,0,1,6.147,7.986Z" transform="translate(-116.4 -124.452)" fill="#fff"/>
    <path id="Path_4" data-name="Path 4" d="M367.665,158.169a6.939,6.939,0,1,0-6.939-6.939A6.947,6.947,0,0,0,367.665,158.169Zm0-11.691a4.752,4.752,0,1,1-4.752,4.752,4.757,4.757,0,0,1,4.752-4.752Z" transform="translate(-308.117 -54.776)" fill="#fff"/>
    <path id="Path_5" data-name="Path 5" d="M401.759,257.368a5.339,5.339,0,0,0-2.946.261,10.446,10.446,0,0,1-4.818.645,1.094,1.094,0,0,0-.221,2.176,12.633,12.633,0,0,0,5.823-.779,3.155,3.155,0,0,1,1.74-.157,8.263,8.263,0,0,1,6.652,8.091v5.845a2.416,2.416,0,0,1-2.413,2.413H393.884a1.094,1.094,0,0,0,0,2.188h11.691a4.606,4.606,0,0,0,4.6-4.6v-5.845A10.456,10.456,0,0,0,401.759,257.368Z" transform="translate(-335.505 -151.278)" fill="#fff"/>
    <path id="Path_6" data-name="Path 6" d="M63.051,158.169a6.939,6.939,0,1,0-6.939-6.939A6.947,6.947,0,0,0,63.051,158.169Zm0-11.691a4.752,4.752,0,1,1-4.752,4.752,4.757,4.757,0,0,1,4.752-4.752Z" transform="translate(-47.929 -54.776)" fill="#fff"/>
    <path id="Path_7" data-name="Path 7" d="M8.84,259.514a3.156,3.156,0,0,1,1.74.157,12.632,12.632,0,0,0,5.823.779,1.094,1.094,0,0,0-.221-2.176,10.447,10.447,0,0,1-4.818-.645,5.339,5.339,0,0,0-2.946-.261A10.456,10.456,0,0,0,0,267.606v5.845a4.606,4.606,0,0,0,4.6,4.6H16.292a1.094,1.094,0,0,0,0-2.188H4.6a2.416,2.416,0,0,1-2.413-2.413v-5.845a8.264,8.264,0,0,1,6.652-8.091Z" transform="translate(0 -151.278)" fill="#fff"/>
  </g>
</svg>
