<svg xmlns="http://www.w3.org/2000/svg" width="20.87" height="20" viewBox="0 0 20.87 20">
  <path id="star_icon" d="M4.672,20.492a1.111,1.111,0,0,1-1.081-1.357l1.343-5.914L.38,9.228a1.11,1.11,0,0,1,.629-1.941l6.025-.547L9.415,1.166a1.109,1.109,0,0,1,2.04,0l2.382,5.575,6.024.547a1.11,1.11,0,0,1,.631,1.941l-4.553,3.992,1.343,5.914a1.109,1.109,0,0,1-1.65,1.2l-5.195-3.1L5.24,20.335a1.112,1.112,0,0,1-.569.157Zm5.764-4.6a1.112,1.112,0,0,1,.569.157l4.9,2.932L14.64,13.4a1.109,1.109,0,0,1,.351-1.081l4.3-3.771L13.6,8.031a1.108,1.108,0,0,1-.922-.672L10.435,2.1,8.187,7.36a1.1,1.1,0,0,1-.919.67l-5.689.517,4.3,3.771A1.107,1.107,0,0,1,6.23,13.4L4.964,18.98l4.9-2.931a1.112,1.112,0,0,1,.569-.157ZM6.987,6.848v0Zm6.894,0v0Zm0,0" transform="translate(-0.001 -0.492)" fill="#b7b7b7"/>
</svg>
